<svg width="37" height="28" viewBox="0 0 37 28" fill="none" xmlns="http://www.w3.org/2000/svg">
<path fill-rule="evenodd" clip-rule="evenodd" d="M12.9998 0L10 0.0387421L10.0641 4.99992H4.57764e-05V8.99992H8.46781C8.31302 9.63415 8.10121 10.268 7.82997 10.8927C6.44735 14.0773 3.86024 16.2434 1.11465 16.869L0 21C3.22964 20.6931 6.50611 18.8611 8.9386 15.6496C9.39958 15.041 9.81241 14.4064 10.1772 13.7527L10.3358 26.0366L13.3356 25.9978L13.1637 12.6867C14.5762 13.8958 16.2909 14.7856 18.1318 15.34L13.7614 27.9999H19.0341L20.7605 22.6931H29.1634L30.8864 27.9999H36.1591L28.1364 4.7272H21.7955L21.7014 4.99992H13.0644L12.9998 0ZM20.3205 8.99992H14.1846C14.2188 9.06158 14.2543 9.12311 14.291 9.18449C15.2764 10.8287 17.0137 12.0583 19.0351 12.7235L20.3205 8.99992ZM27.9163 18.8522L25.0569 10.0454H24.875L22.01 18.8522H27.9163Z" fill="white"/>
</svg>
