<svg xmlns="http://www.w3.org/2000/svg" xmlns:xlink="http://www.w3.org/1999/xlink" width="240" zoomAndPan="magnify" viewBox="0 0 180 179.999997" height="240" preserveAspectRatio="xMidYMid meet" version="1.0"><defs><clipPath id="5188f0b049"><path d="M 16.382812 23 L 163.382812 23 L 163.382812 157 L 16.382812 157 Z M 16.382812 23 " clip-rule="nonzero"/></clipPath></defs><g clip-path="url(#5188f0b049)"><path fill="#3129cb" d="M 132.613281 79.429688 L 163.605469 156.914062 L 148.425781 156.914062 L 139.964844 135.785156 L 111.15625 135.785156 L 102.710938 156.914062 L 87.535156 156.914062 L 118.523438 79.429688 Z M 72.734375 23.078125 L 72.734375 37.164062 L 115 37.164062 L 115 51.253906 L 101.136719 51.253906 C 98.421875 59.433594 94.917969 67.257812 90.625 74.730469 C 86.332031 82.203125 81.335938 89.171875 75.636719 95.640625 C 80.730469 100.183594 86.214844 104.191406 92.09375 107.664062 L 86.804688 120.890625 C 79.210938 116.585938 72.175781 111.511719 65.691406 105.667969 C 59.398438 111.363281 52.570312 116.316406 45.207031 120.53125 C 37.839844 124.746094 30.109375 128.125 22.011719 130.664062 L 18.234375 117.074219 C 25.171875 114.863281 31.804688 111.949219 38.128906 108.339844 C 44.453125 104.726562 50.328125 100.496094 55.761719 95.644531 C 47.679688 86.496094 41.050781 76.394531 35.875 65.34375 L 51.652344 65.34375 C 55.589844 72.609375 60.269531 79.367188 65.691406 85.609375 C 74.566406 75.378906 81.402344 63.929688 86.191406 51.261719 L 16.382812 51.253906 L 16.382812 37.164062 L 58.648438 37.164062 L 58.648438 23.078125 Z M 125.566406 99.753906 L 116.785156 121.695312 L 134.335938 121.695312 Z M 125.566406 99.753906 " fill-opacity="1" fill-rule="nonzero"/></g></svg>